<svg width="30" height="30" viewBox="0 0 30 30" fill="none" xmlns="http://www.w3.org/2000/svg">
                                      <path d="M3.5892 0C1.66061 0 0.0917969 1.56893 0.0917969 3.4974C0.0917969 5.42588 1.65997 6.9947 3.5892 6.9947C5.51844 6.9947 7.08661 5.42588 7.08661 3.4974C7.08661 1.56893 5.51768 0 3.5892 0Z" fill="white"></path>
                                      <path d="M14.909 0C12.9805 0 11.4116 1.56893 11.4116 3.4974C11.4116 5.42588 12.9805 6.9947 14.909 6.9947C16.8376 6.9947 18.4068 5.42588 18.4068 3.4974C18.4068 1.56893 16.8383 0 14.909 0Z" fill="white"></path>
                                      <path d="M26.411 6.99481C28.3391 6.99481 29.9084 5.42599 29.9084 3.49751C29.9084 1.56903 28.3404 0 26.411 0C24.4815 0 22.9136 1.56893 22.9136 3.4974C22.9136 5.42588 24.4827 6.99481 26.411 6.99481Z" fill="white"></path>
                                      <path d="M3.49805 18.2016C5.42653 18.2016 6.99578 16.6331 6.99578 14.7043C6.99578 12.7754 5.42653 11.2066 3.49805 11.2066C1.56958 11.2066 0 12.7755 0 14.7043C0 16.6331 1.56958 18.2016 3.49805 18.2016Z" fill="white"></path>
                                      <path d="M14.8172 18.2016C16.7454 18.2016 18.3146 16.6331 18.3146 14.7043C18.3146 12.7754 16.7467 11.2066 14.8172 11.2066C12.8881 11.2066 11.3198 12.7754 11.3198 14.7043C11.3198 16.6331 12.8888 18.2016 14.8172 18.2016Z" fill="white"></path>
                                      <path d="M26.3205 18.2016C28.2494 18.2016 29.8179 16.6331 29.8179 14.7043C29.8179 12.7754 28.2494 11.2066 26.3205 11.2066C24.3916 11.2066 22.8218 12.7754 22.8218 14.7043C22.8218 16.6331 24.391 18.2016 26.3205 18.2016Z" fill="white"></path>
                                      <path d="M3.57813 22.3786C1.64965 22.3786 0.0800781 23.9471 0.0800781 25.876C0.0800781 27.8041 1.64965 29.3733 3.57813 29.3733C5.50661 29.3733 7.07543 27.8049 7.07543 25.876C7.07543 23.9471 5.50661 22.3786 3.57813 22.3786Z" fill="white"></path>
                                      <path d="M14.898 22.3786C12.9694 22.3786 11.3999 23.9471 11.3999 25.876C11.3999 27.8041 12.9688 29.3733 14.898 29.3733C16.8261 29.3733 18.3953 27.8049 18.3953 25.876C18.3953 23.9471 16.8261 22.3786 14.898 22.3786Z" fill="white"></path>
                                      <path d="M26.4002 22.3786C24.4721 22.3786 22.9028 23.9471 22.9028 25.876C22.9028 27.8041 24.4721 29.3733 26.4002 29.3733C28.3291 29.3733 29.8976 27.8049 29.8976 25.876C29.8976 23.9471 28.3284 22.3786 26.4002 22.3786Z" fill="white"></path>
                                  </svg>